<?xml version="1.0" standalone="no"?>
<!DOCTYPE svg PUBLIC "-//W3C//DTD SVG 20010904//EN"
 "http://www.w3.org/TR/2001/REC-SVG-20010904/DTD/svg10.dtd">
<svg version="1.0" xmlns="http://www.w3.org/2000/svg"
 width="1024.000000pt" height="1024.000000pt" viewBox="0 0 1024.000000 1024.000000"
 preserveAspectRatio="xMidYMid meet">

<g transform="translate(0.000000,1024.000000) scale(0.100000,-0.100000)"
fill="#FFFFFF" stroke="none">
<path d="M4660 6974 c-14 -2 -59 -9 -100 -15 -430 -64 -1154 -461 -2015 -1107
-155 -117 -376 -295 -371 -300 2 -1 26 10 53 26 104 62 515 273 693 357 591
279 1050 441 1390 491 306 45 658 -19 1260 -228 537 -186 1114 -411 1728 -674
435 -186 434 -186 540 -133 144 72 233 253 204 417 -25 140 -111 249 -260 325
-166 86 -1087 381 -1992 638 -555 158 -749 199 -970 204 -74 2 -146 2 -160 -1z"/>
<path d="M3110 5123 c0 -9 106 -162 165 -238 34 -44 135 -164 223 -267 l161
-188 -62 -34 c-111 -62 -237 -98 -362 -103 -131 -6 -219 10 -336 61 -121 52
-73 13 72 -58 171 -85 273 -110 416 -104 120 5 116 -3 -14 -32 -114 -25 -230
-25 -355 0 -55 12 -102 19 -105 17 -5 -6 171 -64 254 -83 37 -9 111 -19 163
-23 l95 -7 -45 -14 c-30 -10 -92 -15 -182 -15 -76 0 -138 -3 -138 -6 0 -8 212
-57 305 -70 119 -17 246 -6 346 30 85 31 85 20 -1 -24 -118 -60 -263 -82 -425
-63 -54 6 -50 4 35 -17 213 -55 382 -55 542 -1 40 13 74 23 76 21 7 -7 -108
-65 -178 -90 -80 -28 -229 -54 -325 -56 -58 -1 -59 -2 -20 -10 83 -17 270 -22
365 -9 109 13 246 56 340 105 l65 34 -40 -36 c-107 -95 -240 -175 -355 -211
-128 -41 -127 -40 -104 -41 43 -2 270 42 364 69 53 16 134 45 181 65 119 52
121 52 54 6 -83 -58 -122 -77 -223 -111 -85 -28 -86 -29 -42 -29 123 -2 325
48 449 110 l96 49 -72 -69 c-81 -77 -179 -131 -289 -158 -95 -25 -48 -28 104
-9 133 18 242 50 347 105 94 48 97 48 47 2 -53 -49 -132 -101 -192 -126 -25
-10 -49 -23 -55 -28 -32 -28 304 85 381 128 35 20 64 32 64 27 0 -15 -109 -94
-180 -129 -36 -18 -59 -33 -52 -33 41 0 210 58 289 100 58 30 100 46 113 43
11 -3 20 -7 20 -10 0 -21 -106 -122 -189 -180 -2 -2 -2 -5 0 -7 6 -6 183 100
243 147 27 20 55 37 62 37 42 0 -10 -87 -110 -183 -106 -102 52 -3 172 108 39
37 72 64 72 60 0 -18 -66 -99 -139 -168 -58 -56 -72 -73 -49 -61 63 33 154 98
230 166 42 37 79 68 82 68 15 0 -38 -82 -105 -165 l-73 -90 76 63 c43 35 109
98 148 139 69 73 99 87 80 38 -18 -46 -39 -81 -80 -133 -22 -29 -37 -52 -34
-52 17 0 122 100 162 155 24 33 46 62 48 64 8 8 -24 -75 -41 -110 -10 -19 -36
-56 -59 -84 -38 -46 -39 -48 -10 -28 17 12 58 51 91 87 l61 64 -14 -51 c-8
-29 -14 -59 -13 -67 0 -23 44 67 65 134 l19 59 16 -64 c16 -61 17 -62 18 -24
1 50 18 112 33 121 7 4 31 -13 57 -42 26 -27 55 -56 66 -64 19 -14 19 -14 4 5
-9 11 -29 45 -43 75 l-27 55 32 -38 c29 -34 109 -97 124 -97 3 0 -12 24 -34
53 -45 61 -60 97 -38 97 8 0 50 -27 93 -61 102 -78 133 -95 67 -35 -29 26 -62
63 -74 83 -22 35 -22 36 -3 50 17 12 21 11 39 -14 25 -36 87 -94 94 -88 2 3
-5 15 -16 28 -42 46 -55 93 -28 103 8 3 51 -15 95 -41 84 -49 120 -57 50 -11
-40 27 -77 72 -67 82 6 6 42 -12 130 -65 20 -13 37 -18 37 -12 0 6 -4 11 -8
11 -16 0 -82 68 -82 84 0 23 19 20 105 -19 88 -40 108 -41 41 -1 -43 25 -66
51 -66 75 0 20 32 11 69 -18 41 -32 67 -47 108 -61 24 -8 25 -8 9 3 -38 25
-76 59 -97 88 l-20 29 25 11 c20 10 29 8 55 -10 29 -21 125 -60 106 -43 -6 5
-29 23 -52 41 -49 37 -51 42 -24 58 17 10 30 8 83 -17 35 -16 79 -32 98 -35
30 -5 28 -3 -16 15 -49 19 -93 54 -82 65 2 3 27 -2 54 -10 64 -19 65 -19 24
15 l-35 29 50 21 c82 35 164 50 283 50 144 0 255 -23 417 -85 35 -14 -55 73
-130 124 -200 139 -396 201 -635 201 -149 0 -236 -12 -478 -65 -275 -60 -387
-76 -567 -82 -491 -16 -925 115 -1803 543 -281 137 -479 244 -624 340 -59 39
-108 69 -108 67z"/>
</g>
</svg>
