<?xml version="1.0" standalone="no"?>
<!DOCTYPE svg PUBLIC "-//W3C//DTD SVG 20010904//EN"
 "http://www.w3.org/TR/2001/REC-SVG-20010904/DTD/svg10.dtd">
<svg version="1.0" xmlns="http://www.w3.org/2000/svg"
 width="512.000000pt" height="512.000000pt" viewBox="0 0 512.000000 512.000000"
 preserveAspectRatio="xMidYMid meet">

<g transform="translate(0.000000,512.000000) scale(0.100000,-0.100000)"
fill="#FFFFFF" stroke="none">
<path d="M2340 4450 c-230 -19 -372 -63 -565 -175 -166 -97 -371 -279 -454
-403 -124 -185 -181 -410 -181 -713 0 -291 56 -511 187 -729 31 -52 78 -140
104 -195 42 -88 58 -135 83 -247 l6 -28 53 33 c68 41 166 142 201 207 42 77
62 162 86 362 25 213 38 271 74 333 46 78 131 123 208 111 113 -18 241 -127
306 -259 22 -45 43 -90 46 -100 6 -17 8 -17 36 3 17 12 28 25 25 30 -7 12 14
207 30 268 18 70 56 132 110 180 51 45 174 101 280 128 39 10 72 19 74 21 2 1
-30 47 -72 101 -71 95 -160 242 -209 347 l-23 50 -120 11 c-542 52 -704 55
-856 15 -151 -39 -280 -120 -352 -221 -30 -42 -49 -59 -65 -59 -22 -1 -22 -1
-6 32 58 115 216 233 374 282 81 24 224 45 315 45 76 0 203 -9 635 -44 102 -9
238 -16 302 -16 231 0 420 -56 637 -188 l74 -45 18 24 c45 60 95 274 84 364
-28 231 -138 370 -330 418 -174 44 -854 79 -1115 57z"/>
<path d="M2528 2563 c-16 -10 -30 -30 -34 -48 -3 -16 -27 -98 -54 -180 -75
-233 -93 -332 -88 -478 3 -99 9 -136 31 -199 42 -122 101 -212 212 -323 255
-256 551 -386 885 -387 201 -1 315 34 391 120 72 82 84 120 84 262 l0 125 -63
180 c-34 98 -68 182 -75 187 -6 4 -21 1 -32 -6 -22 -15 -27 -77 -11 -148 17
-76 -61 -103 -146 -49 -73 47 -116 153 -89 223 7 18 21 27 60 36 29 6 98 40
158 77 108 64 108 64 124 43 l16 -21 18 26 c43 66 24 170 -41 227 -40 35 -44
34 -143 -11 -91 -42 -194 -113 -241 -166 -22 -26 -57 -79 -76 -118 l-36 -72
-45 48 c-54 58 -104 92 -277 188 -174 97 -245 148 -347 251 -72 72 -90 97
-115 158 -16 39 -31 72 -34 72 -3 0 -17 -8 -32 -17z"/>
</g>
</svg>
