<?xml version="1.0" standalone="no"?>
<!DOCTYPE svg PUBLIC "-//W3C//DTD SVG 20010904//EN"
 "http://www.w3.org/TR/2001/REC-SVG-20010904/DTD/svg10.dtd">
<svg version="1.0" xmlns="http://www.w3.org/2000/svg"
 width="1024.000000pt" height="1024.000000pt" viewBox="0 0 1024.000000 1024.000000"
 preserveAspectRatio="xMidYMid meet">

<g transform="translate(0.000000,1024.000000) scale(0.100000,-0.100000)"
fill="#FFFFFF" stroke="none">
<path d="M5563 7930 c-116 -30 -180 -67 -264 -150 -58 -57 -85 -94 -113 -152
-50 -105 -83 -242 -96 -400 -6 -73 -12 -147 -14 -164 l-4 -31 196 -6 c141 -3
294 -16 537 -46 597 -71 2398 -282 2455 -287 l55 -5 -100 53 c-55 29 -192 112
-305 184 -480 307 -759 469 -1060 618 -253 125 -397 185 -703 292 -341 119
-432 134 -584 94z"/>
<path d="M5055 7001 c-146 -24 -252 -77 -350 -176 -91 -91 -128 -157 -210
-373 -121 -318 -1069 -2304 -1177 -2467 -23 -33 -145 -163 -273 -290 -128
-126 -287 -296 -353 -376 -184 -222 -237 -273 -323 -313 -100 -45 -189 -66
-286 -66 -98 0 -130 -11 -144 -47 -15 -40 13 -105 61 -143 73 -58 113 -70 240
-70 63 0 164 -7 223 -16 89 -14 118 -15 160 -5 67 15 154 61 252 131 191 137
246 154 485 152 193 -2 270 8 340 43 57 29 123 100 140 150 19 59 7 164 -36
295 -66 202 -50 333 58 496 68 101 146 182 377 392 444 401 546 505 677 689
155 217 273 529 300 796 4 37 10 69 13 72 9 5 424 -78 567 -114 151 -38 323
-97 749 -256 435 -163 561 -204 1120 -369 253 -74 493 -147 534 -161 41 -14
80 -25 88 -25 11 0 13 152 13 855 l0 854 -32 5 c-49 8 -664 81 -1828 217
-1045 122 -1259 140 -1385 120z"/>
<path d="M5246 5803 c-42 -303 -138 -563 -292 -790 l-66 -98 4 -110 c7 -150
-8 -491 -27 -622 -20 -136 -40 -216 -120 -478 -81 -263 -98 -337 -130 -555
-34 -230 -59 -343 -91 -407 -37 -77 -127 -162 -239 -229 -115 -67 -135 -85
-128 -113 8 -30 66 -78 110 -90 87 -25 181 -8 303 54 30 15 93 41 139 56 106
36 160 68 206 121 20 24 81 133 135 244 86 176 106 208 158 260 35 35 93 78
141 104 198 109 244 138 291 183 65 65 90 120 90 200 0 101 -37 164 -170 288
-175 162 -207 231 -197 429 9 182 39 275 202 625 100 215 165 385 214 560 42
152 70 284 61 290 -11 7 -260 61 -415 90 -77 14 -147 28 -156 31 -13 4 -18 -5
-23 -43z"/>
</g>
</svg>
