<?xml version="1.0" encoding="utf-8" ?><svg xmlns="http://www.w3.org/2000/svg" xmlns:xlink="http://www.w3.org/1999/xlink" width="1024" height="1024" viewBox="0 0 1024 1024"><path fill="white" d="M0 0L1024 0L1024 1024L0 1024L0 0Z"/><path d="M512.848 323.22C528.061 322.403 546.085 324.609 561.151 326.363L609.417 331.969L761.083 349.587C783.925 352.286 807.281 355.565 830.136 357.844L830.065 469.295C829.971 489.442 830.065 509.59 830.349 529.736C788.845 515.913 746.902 505.284 705.305 491.964C669.731 480.003 635.151 465.423 599.505 453.656C583.251 448.29 567.847 444.703 550.996 441.667C541.849 440.019 531.823 437.17 522.636 436.231C514.48 512.042 480.834 541.331 427.191 589.151C405.604 609.276 368.494 636.722 377.641 671.634C381.06 684.684 390.733 703.516 380.922 716.577C367.079 735.008 342.742 728.5 323.612 729.641C317.867 729.963 312.208 731.187 306.844 733.268C290.796 739.651 278.708 755.673 260.539 758.57C252.965 759.777 243.43 756.714 235.894 756.117C228.617 756.032 223.388 756.843 215.997 756.41C206.751 755.868 187.709 743.428 194.912 732.628C197.359 728.957 207.472 730.797 211.932 730.387C220.687 729.537 238.345 724.951 245.034 718.869C257.418 707.608 270.711 690.019 281.624 677.341C297.683 658.684 318.806 644.474 332.74 624.173C337.473 617.279 343.328 604.71 347.13 597.172C355.134 581.268 362.99 565.289 370.697 549.239L441.307 399.715C450.105 380.87 453.359 359.876 467.755 344.016C480.198 330.307 494.568 324.169 512.848 323.22Z"/><path d="M525.18 439.312C544.594 442.86 565.729 446.889 584.767 451.454C580.67 473.053 574.504 494.208 566.354 514.626C554.524 544.387 534.47 572.698 535.94 606.954C536.545 623.57 545.217 633.04 557.3 642.794C577.366 659.379 580.502 681.271 556.884 696.73C543.099 705.752 528.379 709.385 517.571 722.591C505.345 737.528 502.698 758.418 489.65 772.137C481.31 779.913 472.968 780.592 463.126 784.687C455.382 788.269 448.657 792.417 440.146 793.949C431.681 795.473 416.972 792.306 415.42 782.247C417.01 777.892 429.533 772.489 434.361 769.161C438.36 766.428 442.048 763.265 445.358 759.729C450.214 754.502 453.114 750.045 455.102 743.212C460.715 723.924 461.064 704.216 465.61 684.58C471.961 657.149 483.308 632.027 486.824 603.945C489.758 580.515 489.985 555.519 489.067 531.909C511.207 502.403 520.632 475.586 525.18 439.312Z"/><path d="M562.186 229.647C581.895 226.711 598.27 235.105 616 240.83C687.665 263.974 749.886 304.957 812.732 345.159C818.856 349.075 825.784 351.791 832.2 355.19C827.071 355.195 819.109 353.997 813.801 353.359L783.023 349.646L616.309 330.17C600.762 328.472 585.227 326.659 569.706 324.731C563.049 323.927 556.391 323.127 549.731 322.343C535.698 320.692 521.54 320.974 507.438 321.072C507.469 315.382 508.322 309.733 508.668 304.087C510.83 268.787 522.47 236.175 562.186 229.647Z"/></svg>