<svg width="400" height="400" viewBox="0 0 400 400" fill="none" xmlns="http://www.w3.org/2000/svg">
<path d="M269.878 218.561L271.317 224.902V232.762L270.624 239.545L265.964 247.363C263.083 248.981 261.205 250.596 259.687 252.02C257.977 253.624 257.106 254.566 255.769 255.351L255.595 255.454L255.436 255.578L225.203 279.097L224.929 279.309L224.711 279.578L221.903 283.01L200.584 297.17L200.439 297.266L200.306 297.379L86.4492 393H0V364.868L169.237 232.36L173.742 229.554L174.573 234.021L181.421 244.912L181.955 245.275L192.215 252.226L200.163 256.116L200.707 256.382L211.746 257.213L222.658 255.569L223.093 255.357C227.161 253.367 229.278 251.926 231.282 250.377C233.217 248.881 234.803 247.491 238.154 245.304C242.85 242.241 244.947 240.483 246.49 239.014C247.986 237.591 248.565 236.852 250.652 235.377L250.854 235.234L268.084 218.372L268.169 218.29L268.246 218.201L269.331 216.96L269.878 218.561ZM300 293.44V302.529L298.517 314.135L292.586 330.097L282.128 343.989L232.811 393H95.9727L204.209 302.098L216.464 293.959L215.504 295.974V308.672L215.771 309.26L219.105 316.602L230.197 327.458L244.041 330.845L255.502 329.119L278.006 312.601L292.115 298.793L292.193 298.717L292.267 298.634L299.01 291.017L300 293.44ZM185.28 192.948L185.659 200.355V205.836L184.083 210.153L173.889 222.268L165.776 227.322L165.636 227.411L165.506 227.512L0 357.097V276.92L4.96191 273.278L5.02051 273.235L5.07812 273.189L27.5312 255.002L48.415 239.106L48.4658 239.068L48.5146 239.026L68.6514 222.35L91.7773 203.488L94.0527 202.004L93.9072 202.529L93.7227 203.193L95.5098 212.813L104.88 226.987L105.733 227.351L118.731 232.917H134.114L145.137 227.108L145.362 226.93L161.642 214.033L161.74 213.954L161.834 213.867L179.663 197.176L185.192 192.179L185.28 192.948ZM291.208 243.337L285.327 249.814L280.972 254.077L274.249 258.464L276.642 263.951L297.571 259.398L297.882 259.332L313.988 252.238L314.264 252.035L316.529 250.371L316.998 252.668L315.64 259.978L309.861 270.583L297.742 283.186L297.698 283.232L297.656 283.279L287.646 294.581L273.933 308.005L253.023 323.352L244.333 324.66L233.366 321.976L224.304 313.106L221.705 307.384V297.319L226.686 286.876L229.333 283.635L259.151 260.437C261.163 259.213 262.665 257.633 263.978 256.402C265.39 255.078 267.017 253.691 269.69 252.278C274.599 249.684 280.49 246.178 285.995 243.092C288.545 241.662 291.023 240.319 293.351 239.145L291.208 243.337ZM336.832 195.302L338.76 206.613V215.583L333.091 228.064L316.624 242.715L310.819 246.976L295.912 253.543L288.68 255.114L289.789 254.03L289.854 253.968L296.116 247.073L296.389 246.772L302.773 234.274L302.91 234.006L302.992 233.716L307.752 216.632V201.713L319.469 192.155L336.832 195.302ZM283.318 152.782L287.597 158.762V170.475L286.146 179.693L282.524 187.492L275.699 198.625L268.098 209.042L263.609 214.168L246.801 230.617C244.398 232.342 243.382 233.507 242.168 234.663C240.964 235.808 239.184 237.338 234.714 240.255C231.089 242.62 229.186 244.265 227.439 245.615C225.827 246.861 224.136 248.027 220.735 249.718L211.512 251.108L202.394 250.42L195.382 246.99L186.018 240.644L180.466 231.813L179.275 225.413L189.07 213.775L204.308 200.352L214.294 192.836L214.341 192.8L214.388 192.761L223.69 185.175L223.724 185.148L229.091 180.644L239.101 173.109L239.132 173.086L239.164 173.059L251.46 163.281L261.36 156.573L269.947 151.67L277.916 151.018L283.318 152.782ZM192.94 131.253L202.618 136.935L204.561 147.713L199.48 162.628L191.232 176.574L185.324 183.801L175.396 192.77L175.375 192.79L157.64 209.391L141.681 222.036L132.552 226.847H120.028L109.072 222.156L101.389 210.534L100.076 203.463L102.096 196.211L105.632 190.674L115.418 178.885L122.128 173.049L131.282 166.33L139.697 160.34L147.537 155.737L147.722 155.586L156.938 148.067L165.317 142.102L176.095 135.323L176.117 135.31L176.139 135.296L182.334 131.253H192.94ZM400 9.10425V78.7537L377.589 72.948L366.552 69.7078L362.076 94.2312L355.893 122.221L348.935 149.463L343.533 168.342L337.338 189.221L322.412 186.515L323.153 183.622L328.558 165.484L328.584 165.397L328.604 165.308L340.232 115.234L340.243 115.191L340.251 115.147L350.107 66.115L327.968 60.0486L327.949 60.0427L327.932 60.0388L319.789 57.9138L341.563 9.10425H400Z" fill="white"/>
<path d="M216.194 41.6236L215.419 9L213.868 46.9344L212.318 56.7973L210.767 62.8668L209.217 68.9363L206.891 73.4884L203.791 78.0405L200.69 81.0753L197.589 83.3514L194.488 85.6274L191.388 87.1448L187.512 88.6622L183.636 90.1795L180.535 90.9382L177.434 91.6969L172.783 92.4556L141 93.973L168.907 95.4904L176.659 96.249L182.86 97.7664L189.062 100.042L192.163 101.56L195.264 103.077L199.14 105.353L206.116 112.181L211.543 125.838L213.868 134.942L214.643 169.842L216.194 141.77L217.744 132.666L219.295 124.32L222.395 116.734L226.271 111.423L230.922 106.112L235.574 102.319L241 100.042L247.202 97.7664L254.178 96.249L289.837 93.973L267.357 93.2143L253.403 90.9382L244.876 88.6622L240.225 86.3861L237.124 84.8687L233.248 82.5927L229.372 79.5579L226.271 75.7645L223.946 71.971L220.845 65.9016L218.519 55.2799L216.194 41.6236Z" fill="white"/>
<path d="M215.918 8.98812C215.585 8.99604 215.252 9.00396 214.919 9.01188C215.135 17.8888 215.351 26.7657 215.567 35.6426C215.616 37.6401 215.664 39.6375 215.713 41.635L215.72 41.7043C216.498 46.2559 217.275 50.8076 218.053 55.3593L218.058 55.381C218.835 58.9211 219.612 62.4612 220.389 66.0013L220.43 66.1137C221.464 68.1363 222.499 70.1588 223.534 72.1814L223.552 72.2127C224.327 73.4767 225.103 74.7408 225.879 76.0048L225.915 76.0555C226.95 77.3193 227.984 78.5832 229.018 79.8471L229.09 79.9176C230.383 80.9285 231.676 81.9393 232.968 82.9501L233.018 82.9841C234.311 83.7421 235.603 84.5 236.895 85.2579L236.926 85.2741C237.96 85.7793 238.993 86.2845 240.027 86.7897C241.578 87.5475 243.129 88.3053 244.68 89.063L244.761 89.0934C247.604 89.8504 250.447 90.6074 253.289 91.3644L253.332 91.3736C257.984 92.1295 262.635 92.8855 267.287 93.6415L267.342 93.6469C274.836 93.8954 282.329 94.1439 289.823 94.3924L289.81 93.5542C277.925 94.3199 266.039 95.0855 254.153 95.8512L254.094 95.8595C251.768 96.3666 249.443 96.8738 247.118 97.381L247.066 97.3961C244.999 98.156 242.932 98.9159 240.865 99.6758L240.849 99.6823C239.041 100.442 237.232 101.202 235.424 101.962L235.329 102.019C233.779 103.284 232.23 104.549 230.68 105.815L230.634 105.859C229.085 107.63 227.535 109.402 225.986 111.173L225.965 111.199C224.674 112.97 223.383 114.741 222.092 116.512L222.048 116.591C221.016 119.121 219.983 121.651 218.951 124.18L218.93 124.253C218.415 127.035 217.9 129.817 217.384 132.599C216.869 135.64 216.353 138.675 215.838 141.71L215.834 141.75C215.323 151.108 214.811 160.465 214.3 169.823L214.987 169.834C214.722 158.201 214.457 146.568 214.192 134.935L214.182 134.862C213.405 131.828 212.628 128.793 211.851 125.759L211.838 125.72C210.027 121.169 208.215 116.618 206.404 112.067L206.333 111.96C204.006 109.686 201.679 107.411 199.352 105.136L199.293 105.091C198.001 104.334 196.708 103.576 195.416 102.818L195.396 102.807C194.362 102.302 193.328 101.797 192.294 101.291C191.26 100.786 190.226 100.281 189.193 99.7758L189.164 99.7637C187.097 99.0063 185.029 98.2488 182.961 97.4913L182.93 97.4818C180.863 96.9772 178.795 96.4726 176.728 95.968L176.687 95.9611C174.103 95.7097 171.519 95.4584 168.935 95.207L168.922 95.206C159.62 94.7057 150.317 94.2054 141.015 93.705L141.013 94.241C151.607 93.729 162.201 93.217 172.795 92.705L172.823 92.702C174.373 92.4482 175.924 92.1944 177.474 91.9406L177.493 91.9368C178.526 91.6833 179.56 91.4297 180.593 91.1762C181.627 90.9227 182.66 90.6692 183.693 90.4157L183.724 90.406C185.016 89.8994 186.308 89.3929 187.599 88.8863C188.891 88.3798 190.183 87.8732 191.474 87.3667L191.492 87.3588C192.526 86.8524 193.559 86.346 194.592 85.8396L194.628 85.8179C195.661 85.0586 196.694 84.2993 197.728 83.54C198.761 82.7807 199.794 82.0214 200.827 81.2621L200.852 81.2409C201.885 80.2287 202.918 79.2165 203.951 78.2044L203.98 78.1696C205.013 76.6516 206.046 75.1336 207.078 73.6156L207.093 73.5912C207.867 72.0734 208.641 70.5556 209.416 69.0377L209.433 68.9915C209.949 66.968 210.464 64.9445 210.98 62.9211C211.496 60.8976 212.011 58.8741 212.527 56.8507L212.531 56.8308C213.046 53.5428 213.561 50.2549 214.075 46.9669L214.078 46.9429C214.23 43.1702 214.382 39.3974 214.534 35.6247C214.891 26.7524 215.249 17.88 215.606 9.00766C215.481 9.00255 215.356 8.99745 215.231 8.99234C214.863 17.8643 214.496 26.7362 214.128 35.6081C213.971 39.3807 213.815 43.1532 213.659 46.9258L213.661 46.9018C213.142 50.1891 212.624 53.4765 212.105 56.7638L212.109 56.7439C211.591 58.7668 211.073 60.7897 210.555 62.8125C210.037 64.8354 209.519 66.8582 209.001 68.8811L209.018 68.8349C208.242 70.3518 207.466 71.8687 206.69 73.3856L206.705 73.3612C205.67 74.878 204.636 76.3947 203.601 77.9115L203.63 77.8767C202.596 78.8877 201.562 79.8987 200.528 80.9097L200.553 80.8885C199.519 81.6466 198.485 82.4046 197.451 83.1627C196.417 83.9208 195.383 84.6789 194.349 85.437L194.385 85.4152C193.351 85.9204 192.317 86.4256 191.283 86.9308L191.301 86.9229C190.008 87.4279 188.716 87.933 187.424 88.438C186.132 88.943 184.839 89.4481 183.547 89.9531L183.578 89.9433C182.544 90.1956 181.51 90.4479 180.477 90.7002C179.443 90.9525 178.409 91.2048 177.375 91.4571L177.394 91.4532C175.844 91.7052 174.293 91.9572 172.743 92.2092L172.771 92.2062C162.176 92.7058 151.582 93.2054 140.987 93.7049L140.985 94.2409C150.287 94.7522 159.589 95.2634 168.892 95.7747L168.879 95.7737C171.463 96.0281 174.047 96.2826 176.631 96.537L176.59 96.5301C178.657 97.0371 180.724 97.5441 182.791 98.0511L182.759 98.0415C184.826 98.8014 186.893 99.5613 188.96 100.321L188.931 100.309C189.965 100.816 190.998 101.322 192.031 101.828C193.065 102.335 194.098 102.841 195.131 103.348L195.111 103.337C196.403 104.096 197.694 104.856 198.986 105.615L198.927 105.57C201.251 107.848 203.576 110.125 205.9 112.403L205.829 112.296C207.635 116.849 209.441 121.402 211.247 125.955L211.235 125.917C212.008 128.952 212.781 131.987 213.555 135.022L213.545 134.949C213.796 146.583 214.048 158.216 214.3 169.849L214.987 169.861C215.509 160.504 216.031 151.147 216.554 141.79L216.549 141.831C217.068 138.796 217.586 135.762 218.105 132.727C218.622 129.951 219.141 127.17 219.659 124.388L219.638 124.461C220.673 121.932 221.708 119.404 222.743 116.876L222.699 116.955C223.992 115.186 225.285 113.416 226.578 111.647L226.557 111.673C228.108 109.903 229.66 108.134 231.211 106.365L231.165 106.409C232.716 105.146 234.267 103.882 235.818 102.619L235.723 102.676C237.533 101.918 239.342 101.16 241.151 100.403L241.135 100.409C243.202 99.6517 245.27 98.8942 247.337 98.1367L247.285 98.1519C249.611 97.6475 251.937 97.143 254.263 96.6386L254.204 96.6469C266.09 95.8952 277.977 95.1435 289.864 94.3918L289.851 93.5536C282.358 93.2963 274.865 93.039 267.371 92.7817L267.426 92.7871C262.776 92.0257 258.125 91.2643 253.474 90.5029L253.517 90.512C250.675 89.7517 247.833 88.9913 244.991 88.231L245.072 88.2613C243.522 87.5017 241.972 86.7421 240.422 85.9825C239.389 85.4761 238.356 84.9697 237.322 84.4633L237.353 84.4795C236.061 83.7201 234.769 82.9606 233.478 82.2012L233.528 82.2352C232.237 81.2229 230.945 80.2105 229.654 79.1982L229.726 79.2688C228.693 78.0037 227.66 76.7386 226.627 75.4735L226.663 75.5242C225.889 74.2593 225.114 72.9943 224.34 71.7294L224.357 71.7607C223.325 69.7369 222.293 67.7132 221.26 65.6894L221.301 65.8018C220.527 62.2608 219.754 58.7198 218.981 55.1788L218.985 55.2006C218.213 50.648 217.44 46.0954 216.668 41.5428L216.675 41.6121C216.628 39.6146 216.582 37.6171 216.536 35.6196C216.33 26.7424 216.124 17.8653 215.918 8.98812ZM214.919 9.01188L215.918 8.98812L215.231 8.99234L215.606 9.00766L214.919 9.01188Z" fill="white"/>
</svg>
